<mxfile host="app.diagrams.net" agent="Mozilla/5.0 (Windows NT 10.0; Win64; x64) AppleWebKit/537.36 (KHTML, like Gecko) Chrome/129.0.0.0 Safari/537.36 Edg/129.0.0.0" version="24.7.17" pages="2">
  <diagram id="C5RBs43oDa-KdzZeNtuy" name="Page-1">
    <mxGraphModel dx="4360" dy="2385" grid="1" gridSize="16" guides="1" tooltips="1" connect="1" arrows="1" fold="1" page="1" pageScale="1" pageWidth="4681" pageHeight="3300" math="0" shadow="0">
      <root>
        <mxCell id="WIyWlLk6GJQsqaUBKTNV-0" />
        <mxCell id="WIyWlLk6GJQsqaUBKTNV-1" parent="WIyWlLk6GJQsqaUBKTNV-0" />
        <mxCell id="H1Wj1wdWr6KzZLLInvjO-0" value="&lt;font style=&quot;font-size: 20px;&quot;&gt;START&lt;/font&gt;" style="ellipse;whiteSpace=wrap;html=1;" vertex="1" parent="WIyWlLk6GJQsqaUBKTNV-1">
          <mxGeometry x="813.5" width="169" height="128" as="geometry" />
        </mxCell>
        <mxCell id="H1Wj1wdWr6KzZLLInvjO-1" value="" style="endArrow=classic;html=1;rounded=0;exitX=0.5;exitY=1;exitDx=0;exitDy=0;" edge="1" parent="WIyWlLk6GJQsqaUBKTNV-1" source="H1Wj1wdWr6KzZLLInvjO-0">
          <mxGeometry width="50" height="50" relative="1" as="geometry">
            <mxPoint x="895" y="112" as="sourcePoint" />
            <mxPoint x="900" y="162" as="targetPoint" />
          </mxGeometry>
        </mxCell>
        <mxCell id="H1Wj1wdWr6KzZLLInvjO-2" value="&lt;font style=&quot;font-size: 20px;&quot;&gt;If contactCount &amp;gt;= 50&lt;/font&gt;" style="rhombus;whiteSpace=wrap;html=1;" vertex="1" parent="WIyWlLk6GJQsqaUBKTNV-1">
          <mxGeometry x="764.75" y="162" width="270.5" height="190" as="geometry" />
        </mxCell>
        <mxCell id="H1Wj1wdWr6KzZLLInvjO-5" value="" style="edgeStyle=segmentEdgeStyle;endArrow=classic;html=1;curved=0;rounded=0;endSize=8;startSize=8;exitX=0;exitY=0.5;exitDx=0;exitDy=0;entryX=0.5;entryY=0;entryDx=0;entryDy=0;" edge="1" parent="WIyWlLk6GJQsqaUBKTNV-1" source="H1Wj1wdWr6KzZLLInvjO-2" target="xCWjNT7b1dWMPTHe06sp-2">
          <mxGeometry width="50" height="50" relative="1" as="geometry">
            <mxPoint x="1165" y="352" as="sourcePoint" />
            <mxPoint x="655" y="562" as="targetPoint" />
            <Array as="points">
              <mxPoint x="576" y="256" />
              <mxPoint x="576" y="448" />
            </Array>
          </mxGeometry>
        </mxCell>
        <mxCell id="xCWjNT7b1dWMPTHe06sp-11" style="edgeStyle=orthogonalEdgeStyle;rounded=0;orthogonalLoop=1;jettySize=auto;html=1;exitX=0.5;exitY=1;exitDx=0;exitDy=0;entryX=0.5;entryY=0;entryDx=0;entryDy=0;" edge="1" parent="WIyWlLk6GJQsqaUBKTNV-1" source="H1Wj1wdWr6KzZLLInvjO-6" target="xCWjNT7b1dWMPTHe06sp-1">
          <mxGeometry relative="1" as="geometry" />
        </mxCell>
        <mxCell id="H1Wj1wdWr6KzZLLInvjO-6" value="&lt;font style=&quot;font-size: 20px;&quot;&gt;Input name, phone&lt;/font&gt;" style="shape=parallelogram;perimeter=parallelogramPerimeter;whiteSpace=wrap;html=1;fixedSize=1;" vertex="1" parent="WIyWlLk6GJQsqaUBKTNV-1">
          <mxGeometry x="764.75" y="448" width="272.75" height="112" as="geometry" />
        </mxCell>
        <mxCell id="H1Wj1wdWr6KzZLLInvjO-7" value="" style="endArrow=classic;html=1;rounded=0;exitX=0.5;exitY=1;exitDx=0;exitDy=0;entryX=0.5;entryY=0;entryDx=0;entryDy=0;" edge="1" parent="WIyWlLk6GJQsqaUBKTNV-1" source="H1Wj1wdWr6KzZLLInvjO-2" target="H1Wj1wdWr6KzZLLInvjO-6">
          <mxGeometry width="50" height="50" relative="1" as="geometry">
            <mxPoint x="1165" y="352" as="sourcePoint" />
            <mxPoint x="1215" y="302" as="targetPoint" />
            <Array as="points" />
          </mxGeometry>
        </mxCell>
        <mxCell id="xCWjNT7b1dWMPTHe06sp-10" style="edgeStyle=orthogonalEdgeStyle;rounded=0;orthogonalLoop=1;jettySize=auto;html=1;exitX=0.5;exitY=1;exitDx=0;exitDy=0;entryX=0.5;entryY=0;entryDx=0;entryDy=0;" edge="1" parent="WIyWlLk6GJQsqaUBKTNV-1" source="xCWjNT7b1dWMPTHe06sp-1" target="xCWjNT7b1dWMPTHe06sp-3">
          <mxGeometry relative="1" as="geometry" />
        </mxCell>
        <mxCell id="xCWjNT7b1dWMPTHe06sp-1" value="&lt;span style=&quot;font-size: 20px;&quot;&gt;Get name, phone&lt;/span&gt;" style="rounded=0;whiteSpace=wrap;html=1;" vertex="1" parent="WIyWlLk6GJQsqaUBKTNV-1">
          <mxGeometry x="781" y="656" width="234" height="112" as="geometry" />
        </mxCell>
        <mxCell id="xCWjNT7b1dWMPTHe06sp-12" style="edgeStyle=orthogonalEdgeStyle;rounded=0;orthogonalLoop=1;jettySize=auto;html=1;exitX=0.5;exitY=1;exitDx=0;exitDy=0;entryX=0;entryY=0.5;entryDx=0;entryDy=0;" edge="1" parent="WIyWlLk6GJQsqaUBKTNV-1" source="xCWjNT7b1dWMPTHe06sp-2" target="xCWjNT7b1dWMPTHe06sp-5">
          <mxGeometry relative="1" as="geometry" />
        </mxCell>
        <mxCell id="xCWjNT7b1dWMPTHe06sp-2" value="&lt;font style=&quot;font-size: 20px;&quot;&gt;Print &quot; Phonebook is Full &quot;&lt;/font&gt;" style="rounded=0;whiteSpace=wrap;html=1;" vertex="1" parent="WIyWlLk6GJQsqaUBKTNV-1">
          <mxGeometry x="448" y="448" width="256" height="112" as="geometry" />
        </mxCell>
        <mxCell id="xCWjNT7b1dWMPTHe06sp-7" style="edgeStyle=orthogonalEdgeStyle;rounded=0;orthogonalLoop=1;jettySize=auto;html=1;exitX=0.5;exitY=1;exitDx=0;exitDy=0;" edge="1" parent="WIyWlLk6GJQsqaUBKTNV-1" source="xCWjNT7b1dWMPTHe06sp-3">
          <mxGeometry relative="1" as="geometry">
            <mxPoint x="898" y="1104" as="targetPoint" />
          </mxGeometry>
        </mxCell>
        <mxCell id="xCWjNT7b1dWMPTHe06sp-3" value="&lt;font style=&quot;font-size: 20px;&quot;&gt;ContactCount = contactCount + 1&lt;/font&gt;" style="rounded=0;whiteSpace=wrap;html=1;" vertex="1" parent="WIyWlLk6GJQsqaUBKTNV-1">
          <mxGeometry x="757" y="848" width="282" height="144" as="geometry" />
        </mxCell>
        <mxCell id="xCWjNT7b1dWMPTHe06sp-4" value="&lt;font style=&quot;font-size: 20px;&quot;&gt;Print &quot; Contact is added &quot;&lt;/font&gt;" style="rounded=0;whiteSpace=wrap;html=1;" vertex="1" parent="WIyWlLk6GJQsqaUBKTNV-1">
          <mxGeometry x="748.5" y="1104" width="299" height="112" as="geometry" />
        </mxCell>
        <mxCell id="xCWjNT7b1dWMPTHe06sp-5" value="&lt;font style=&quot;font-size: 20px;&quot;&gt;END&lt;/font&gt;" style="ellipse;whiteSpace=wrap;html=1;" vertex="1" parent="WIyWlLk6GJQsqaUBKTNV-1">
          <mxGeometry x="805" y="1328" width="186" height="144" as="geometry" />
        </mxCell>
        <mxCell id="xCWjNT7b1dWMPTHe06sp-6" value="" style="endArrow=classic;html=1;rounded=0;exitX=0.5;exitY=1;exitDx=0;exitDy=0;entryX=0.5;entryY=0;entryDx=0;entryDy=0;" edge="1" parent="WIyWlLk6GJQsqaUBKTNV-1" source="xCWjNT7b1dWMPTHe06sp-4" target="xCWjNT7b1dWMPTHe06sp-5">
          <mxGeometry width="50" height="50" relative="1" as="geometry">
            <mxPoint x="800" y="1138" as="sourcePoint" />
            <mxPoint x="850" y="1088" as="targetPoint" />
          </mxGeometry>
        </mxCell>
        <mxCell id="xCWjNT7b1dWMPTHe06sp-13" value="&lt;font style=&quot;font-size: 25px;&quot;&gt;THIS IS THE FLOWCHART FOR INSERTING CONTACTS&lt;/font&gt;" style="shape=document;whiteSpace=wrap;html=1;boundedLbl=1;size=0.25;" vertex="1" parent="WIyWlLk6GJQsqaUBKTNV-1">
          <mxGeometry x="80" y="64" width="352" height="256" as="geometry" />
        </mxCell>
        <mxCell id="xCWjNT7b1dWMPTHe06sp-30" style="edgeStyle=orthogonalEdgeStyle;rounded=0;orthogonalLoop=1;jettySize=auto;html=1;exitX=0.5;exitY=1;exitDx=0;exitDy=0;entryX=0.5;entryY=0;entryDx=0;entryDy=0;" edge="1" parent="WIyWlLk6GJQsqaUBKTNV-1" source="xCWjNT7b1dWMPTHe06sp-14" target="xCWjNT7b1dWMPTHe06sp-16">
          <mxGeometry relative="1" as="geometry" />
        </mxCell>
        <mxCell id="xCWjNT7b1dWMPTHe06sp-14" value="&lt;font style=&quot;font-size: 20px;&quot;&gt;START&lt;/font&gt;" style="ellipse;whiteSpace=wrap;html=1;" vertex="1" parent="WIyWlLk6GJQsqaUBKTNV-1">
          <mxGeometry x="1688" y="16" width="208" height="144" as="geometry" />
        </mxCell>
        <mxCell id="xCWjNT7b1dWMPTHe06sp-24" style="edgeStyle=orthogonalEdgeStyle;rounded=0;orthogonalLoop=1;jettySize=auto;html=1;exitX=0.5;exitY=1;exitDx=0;exitDy=0;entryX=0.5;entryY=0;entryDx=0;entryDy=0;" edge="1" parent="WIyWlLk6GJQsqaUBKTNV-1" source="xCWjNT7b1dWMPTHe06sp-15" target="xCWjNT7b1dWMPTHe06sp-18">
          <mxGeometry relative="1" as="geometry" />
        </mxCell>
        <mxCell id="xCWjNT7b1dWMPTHe06sp-15" value="&lt;font style=&quot;font-size: 20px;&quot;&gt;Get name&lt;/font&gt;" style="rounded=0;whiteSpace=wrap;html=1;" vertex="1" parent="WIyWlLk6GJQsqaUBKTNV-1">
          <mxGeometry x="1671" y="448" width="242" height="86" as="geometry" />
        </mxCell>
        <mxCell id="xCWjNT7b1dWMPTHe06sp-23" style="edgeStyle=orthogonalEdgeStyle;rounded=0;orthogonalLoop=1;jettySize=auto;html=1;exitX=0.5;exitY=1;exitDx=0;exitDy=0;entryX=0.5;entryY=0;entryDx=0;entryDy=0;" edge="1" parent="WIyWlLk6GJQsqaUBKTNV-1" source="xCWjNT7b1dWMPTHe06sp-16" target="xCWjNT7b1dWMPTHe06sp-15">
          <mxGeometry relative="1" as="geometry" />
        </mxCell>
        <mxCell id="xCWjNT7b1dWMPTHe06sp-16" value="&lt;font style=&quot;font-size: 20px;&quot;&gt;Input name&lt;/font&gt;" style="shape=parallelogram;perimeter=parallelogramPerimeter;whiteSpace=wrap;html=1;fixedSize=1;" vertex="1" parent="WIyWlLk6GJQsqaUBKTNV-1">
          <mxGeometry x="1667" y="240" width="250" height="112" as="geometry" />
        </mxCell>
        <mxCell id="xCWjNT7b1dWMPTHe06sp-25" style="edgeStyle=orthogonalEdgeStyle;rounded=0;orthogonalLoop=1;jettySize=auto;html=1;exitX=0.5;exitY=1;exitDx=0;exitDy=0;entryX=0.5;entryY=0;entryDx=0;entryDy=0;" edge="1" parent="WIyWlLk6GJQsqaUBKTNV-1" source="xCWjNT7b1dWMPTHe06sp-18" target="xCWjNT7b1dWMPTHe06sp-19">
          <mxGeometry relative="1" as="geometry" />
        </mxCell>
        <mxCell id="xCWjNT7b1dWMPTHe06sp-18" value="&lt;font style=&quot;font-size: 20px;&quot;&gt;For i = 0 to contactsCount - 1&lt;/font&gt;" style="rounded=0;whiteSpace=wrap;html=1;" vertex="1" parent="WIyWlLk6GJQsqaUBKTNV-1">
          <mxGeometry x="1686" y="624" width="212" height="96" as="geometry" />
        </mxCell>
        <mxCell id="xCWjNT7b1dWMPTHe06sp-26" style="edgeStyle=orthogonalEdgeStyle;rounded=0;orthogonalLoop=1;jettySize=auto;html=1;exitX=0.5;exitY=1;exitDx=0;exitDy=0;entryX=0.5;entryY=0;entryDx=0;entryDy=0;" edge="1" parent="WIyWlLk6GJQsqaUBKTNV-1" source="xCWjNT7b1dWMPTHe06sp-19" target="xCWjNT7b1dWMPTHe06sp-20">
          <mxGeometry relative="1" as="geometry" />
        </mxCell>
        <mxCell id="xCWjNT7b1dWMPTHe06sp-27" style="edgeStyle=orthogonalEdgeStyle;rounded=0;orthogonalLoop=1;jettySize=auto;html=1;exitX=0;exitY=0.5;exitDx=0;exitDy=0;entryX=0.5;entryY=0;entryDx=0;entryDy=0;" edge="1" parent="WIyWlLk6GJQsqaUBKTNV-1" source="xCWjNT7b1dWMPTHe06sp-19" target="xCWjNT7b1dWMPTHe06sp-21">
          <mxGeometry relative="1" as="geometry" />
        </mxCell>
        <mxCell id="xCWjNT7b1dWMPTHe06sp-19" value="&lt;font style=&quot;font-size: 21px;&quot;&gt;If Contacts[i].name&lt;/font&gt;&lt;div style=&quot;font-size: 21px;&quot;&gt;&lt;font style=&quot;font-size: 21px;&quot;&gt;== name&lt;/font&gt;&lt;/div&gt;" style="rhombus;whiteSpace=wrap;html=1;" vertex="1" parent="WIyWlLk6GJQsqaUBKTNV-1">
          <mxGeometry x="1676" y="800" width="232" height="208" as="geometry" />
        </mxCell>
        <mxCell id="xCWjNT7b1dWMPTHe06sp-29" style="edgeStyle=orthogonalEdgeStyle;rounded=0;orthogonalLoop=1;jettySize=auto;html=1;exitX=0.5;exitY=1;exitDx=0;exitDy=0;entryX=0.5;entryY=0;entryDx=0;entryDy=0;" edge="1" parent="WIyWlLk6GJQsqaUBKTNV-1" source="xCWjNT7b1dWMPTHe06sp-20" target="xCWjNT7b1dWMPTHe06sp-28">
          <mxGeometry relative="1" as="geometry" />
        </mxCell>
        <mxCell id="xCWjNT7b1dWMPTHe06sp-20" value="&lt;font style=&quot;font-size: 22px;&quot;&gt;Print Contacts.phone&lt;/font&gt;" style="rounded=0;whiteSpace=wrap;html=1;" vertex="1" parent="WIyWlLk6GJQsqaUBKTNV-1">
          <mxGeometry x="1670" y="1072" width="244" height="112" as="geometry" />
        </mxCell>
        <mxCell id="xCWjNT7b1dWMPTHe06sp-22" style="edgeStyle=orthogonalEdgeStyle;rounded=0;orthogonalLoop=1;jettySize=auto;html=1;exitX=0;exitY=0.5;exitDx=0;exitDy=0;entryX=0;entryY=0.5;entryDx=0;entryDy=0;" edge="1" parent="WIyWlLk6GJQsqaUBKTNV-1" source="xCWjNT7b1dWMPTHe06sp-21" target="xCWjNT7b1dWMPTHe06sp-16">
          <mxGeometry relative="1" as="geometry">
            <Array as="points">
              <mxPoint x="1252" y="1120" />
              <mxPoint x="1252" y="296" />
            </Array>
          </mxGeometry>
        </mxCell>
        <mxCell id="xCWjNT7b1dWMPTHe06sp-21" value="&lt;font style=&quot;font-size: 21px;&quot;&gt;Print &quot; Contact not Found &quot;&lt;/font&gt;" style="rounded=0;whiteSpace=wrap;html=1;" vertex="1" parent="WIyWlLk6GJQsqaUBKTNV-1">
          <mxGeometry x="1272" y="1072" width="256" height="96" as="geometry" />
        </mxCell>
        <mxCell id="xCWjNT7b1dWMPTHe06sp-28" value="&lt;font style=&quot;font-size: 23px;&quot;&gt;END&lt;/font&gt;" style="ellipse;whiteSpace=wrap;html=1;" vertex="1" parent="WIyWlLk6GJQsqaUBKTNV-1">
          <mxGeometry x="1686" y="1280" width="212" height="144" as="geometry" />
        </mxCell>
        <mxCell id="xCWjNT7b1dWMPTHe06sp-31" value="&lt;font style=&quot;font-size: 20px;&quot;&gt;THIS FLOWCHART IS TO SEARCH FOR CONTACTS BY NAME&lt;/font&gt;" style="shape=document;whiteSpace=wrap;html=1;boundedLbl=1;size=0.2;" vertex="1" parent="WIyWlLk6GJQsqaUBKTNV-1">
          <mxGeometry x="1152" y="24" width="232" height="168" as="geometry" />
        </mxCell>
        <mxCell id="xCWjNT7b1dWMPTHe06sp-36" style="edgeStyle=orthogonalEdgeStyle;rounded=0;orthogonalLoop=1;jettySize=auto;html=1;exitX=0.5;exitY=1;exitDx=0;exitDy=0;entryX=0.5;entryY=0;entryDx=0;entryDy=0;" edge="1" parent="WIyWlLk6GJQsqaUBKTNV-1" source="xCWjNT7b1dWMPTHe06sp-32" target="xCWjNT7b1dWMPTHe06sp-33">
          <mxGeometry relative="1" as="geometry" />
        </mxCell>
        <mxCell id="xCWjNT7b1dWMPTHe06sp-32" value="&lt;font style=&quot;font-size: 20px;&quot;&gt;START&lt;/font&gt;" style="ellipse;whiteSpace=wrap;html=1;" vertex="1" parent="WIyWlLk6GJQsqaUBKTNV-1">
          <mxGeometry x="2319" y="24" width="192" height="140" as="geometry" />
        </mxCell>
        <mxCell id="xCWjNT7b1dWMPTHe06sp-37" style="edgeStyle=orthogonalEdgeStyle;rounded=0;orthogonalLoop=1;jettySize=auto;html=1;exitX=0.5;exitY=1;exitDx=0;exitDy=0;entryX=0.5;entryY=0;entryDx=0;entryDy=0;" edge="1" parent="WIyWlLk6GJQsqaUBKTNV-1" source="xCWjNT7b1dWMPTHe06sp-33" target="xCWjNT7b1dWMPTHe06sp-34">
          <mxGeometry relative="1" as="geometry" />
        </mxCell>
        <mxCell id="xCWjNT7b1dWMPTHe06sp-33" value="&lt;font style=&quot;font-size: 23px;&quot;&gt;For i = 0 contactCount - 1&lt;/font&gt;" style="rounded=0;whiteSpace=wrap;html=1;" vertex="1" parent="WIyWlLk6GJQsqaUBKTNV-1">
          <mxGeometry x="2297" y="228" width="236" height="108" as="geometry" />
        </mxCell>
        <mxCell id="xCWjNT7b1dWMPTHe06sp-38" style="edgeStyle=orthogonalEdgeStyle;rounded=0;orthogonalLoop=1;jettySize=auto;html=1;exitX=0.5;exitY=1;exitDx=0;exitDy=0;entryX=0.5;entryY=0;entryDx=0;entryDy=0;" edge="1" parent="WIyWlLk6GJQsqaUBKTNV-1" source="xCWjNT7b1dWMPTHe06sp-34" target="xCWjNT7b1dWMPTHe06sp-35">
          <mxGeometry relative="1" as="geometry" />
        </mxCell>
        <mxCell id="xCWjNT7b1dWMPTHe06sp-34" value="&lt;font style=&quot;font-size: 22px;&quot;&gt;Print &quot; Name: &quot; , Contacts[i].name, &quot;phone: &quot;, Contacts[i].phone&lt;/font&gt;" style="rounded=0;whiteSpace=wrap;html=1;" vertex="1" parent="WIyWlLk6GJQsqaUBKTNV-1">
          <mxGeometry x="2240" y="420" width="350" height="112" as="geometry" />
        </mxCell>
        <mxCell id="xCWjNT7b1dWMPTHe06sp-35" value="&lt;font style=&quot;font-size: 21px;&quot;&gt;END&lt;/font&gt;" style="ellipse;whiteSpace=wrap;html=1;" vertex="1" parent="WIyWlLk6GJQsqaUBKTNV-1">
          <mxGeometry x="2321" y="596" width="188" height="144" as="geometry" />
        </mxCell>
        <mxCell id="xCWjNT7b1dWMPTHe06sp-39" value="&lt;font style=&quot;font-size: 16px;&quot;&gt;FLOWCHART TO DISPLAY CONTACTS&lt;/font&gt;" style="shape=document;whiteSpace=wrap;html=1;boundedLbl=1;" vertex="1" parent="WIyWlLk6GJQsqaUBKTNV-1">
          <mxGeometry x="2032" y="46" width="208" height="142" as="geometry" />
        </mxCell>
        <mxCell id="xCWjNT7b1dWMPTHe06sp-53" style="edgeStyle=orthogonalEdgeStyle;rounded=0;orthogonalLoop=1;jettySize=auto;html=1;exitX=0.5;exitY=1;exitDx=0;exitDy=0;entryX=0.5;entryY=0;entryDx=0;entryDy=0;" edge="1" parent="WIyWlLk6GJQsqaUBKTNV-1" source="xCWjNT7b1dWMPTHe06sp-40" target="xCWjNT7b1dWMPTHe06sp-47">
          <mxGeometry relative="1" as="geometry" />
        </mxCell>
        <mxCell id="xCWjNT7b1dWMPTHe06sp-40" value="&lt;font style=&quot;font-size: 20px;&quot;&gt;START&lt;/font&gt;" style="ellipse;whiteSpace=wrap;html=1;" vertex="1" parent="WIyWlLk6GJQsqaUBKTNV-1">
          <mxGeometry x="4112" y="62" width="192" height="128" as="geometry" />
        </mxCell>
        <mxCell id="xCWjNT7b1dWMPTHe06sp-47" value="&lt;font style=&quot;font-size: 20px;&quot;&gt;Input name&lt;/font&gt;" style="shape=parallelogram;perimeter=parallelogramPerimeter;whiteSpace=wrap;html=1;fixedSize=1;" vertex="1" parent="WIyWlLk6GJQsqaUBKTNV-1">
          <mxGeometry x="4058.5" y="270" width="299" height="116" as="geometry" />
        </mxCell>
        <mxCell id="xCWjNT7b1dWMPTHe06sp-64" style="edgeStyle=orthogonalEdgeStyle;rounded=0;orthogonalLoop=1;jettySize=auto;html=1;exitX=0.5;exitY=1;exitDx=0;exitDy=0;entryX=0.5;entryY=0;entryDx=0;entryDy=0;" edge="1" parent="WIyWlLk6GJQsqaUBKTNV-1" source="xCWjNT7b1dWMPTHe06sp-48" target="xCWjNT7b1dWMPTHe06sp-63">
          <mxGeometry relative="1" as="geometry" />
        </mxCell>
        <mxCell id="xCWjNT7b1dWMPTHe06sp-48" value="&lt;font style=&quot;font-size: 20px;&quot;&gt;Get name&lt;/font&gt;" style="rounded=0;whiteSpace=wrap;html=1;" vertex="1" parent="WIyWlLk6GJQsqaUBKTNV-1">
          <mxGeometry x="4059" y="482" width="267" height="124" as="geometry" />
        </mxCell>
        <mxCell id="xCWjNT7b1dWMPTHe06sp-54" style="edgeStyle=orthogonalEdgeStyle;rounded=0;orthogonalLoop=1;jettySize=auto;html=1;exitX=0.5;exitY=1;exitDx=0;exitDy=0;entryX=0.558;entryY=0;entryDx=0;entryDy=0;entryPerimeter=0;" edge="1" parent="WIyWlLk6GJQsqaUBKTNV-1" source="xCWjNT7b1dWMPTHe06sp-47" target="xCWjNT7b1dWMPTHe06sp-48">
          <mxGeometry relative="1" as="geometry" />
        </mxCell>
        <mxCell id="xCWjNT7b1dWMPTHe06sp-66" style="edgeStyle=orthogonalEdgeStyle;rounded=0;orthogonalLoop=1;jettySize=auto;html=1;exitX=0.5;exitY=1;exitDx=0;exitDy=0;entryX=0.5;entryY=0;entryDx=0;entryDy=0;" edge="1" parent="WIyWlLk6GJQsqaUBKTNV-1" source="xCWjNT7b1dWMPTHe06sp-63" target="xCWjNT7b1dWMPTHe06sp-65">
          <mxGeometry relative="1" as="geometry" />
        </mxCell>
        <mxCell id="xCWjNT7b1dWMPTHe06sp-63" value="&lt;font style=&quot;font-size: 20px;&quot;&gt;Set i = 0&lt;/font&gt;" style="rounded=0;whiteSpace=wrap;html=1;" vertex="1" parent="WIyWlLk6GJQsqaUBKTNV-1">
          <mxGeometry x="4074.75" y="674" width="235.5" height="112" as="geometry" />
        </mxCell>
        <mxCell id="xCWjNT7b1dWMPTHe06sp-68" style="edgeStyle=orthogonalEdgeStyle;rounded=0;orthogonalLoop=1;jettySize=auto;html=1;exitX=0.5;exitY=1;exitDx=0;exitDy=0;entryX=0.5;entryY=0;entryDx=0;entryDy=0;" edge="1" parent="WIyWlLk6GJQsqaUBKTNV-1" source="xCWjNT7b1dWMPTHe06sp-65" target="xCWjNT7b1dWMPTHe06sp-67">
          <mxGeometry relative="1" as="geometry" />
        </mxCell>
        <mxCell id="xCWjNT7b1dWMPTHe06sp-84" style="edgeStyle=orthogonalEdgeStyle;rounded=0;orthogonalLoop=1;jettySize=auto;html=1;exitX=0;exitY=0.5;exitDx=0;exitDy=0;entryX=0;entryY=0.5;entryDx=0;entryDy=0;" edge="1" parent="WIyWlLk6GJQsqaUBKTNV-1" source="xCWjNT7b1dWMPTHe06sp-65" target="xCWjNT7b1dWMPTHe06sp-79">
          <mxGeometry relative="1" as="geometry">
            <Array as="points">
              <mxPoint x="3856" y="970" />
              <mxPoint x="3856" y="2474" />
            </Array>
          </mxGeometry>
        </mxCell>
        <mxCell id="xCWjNT7b1dWMPTHe06sp-65" value="&lt;font style=&quot;font-size: 20px;&quot;&gt;if i &amp;lt; contactCount&lt;/font&gt;" style="rhombus;whiteSpace=wrap;html=1;" vertex="1" parent="WIyWlLk6GJQsqaUBKTNV-1">
          <mxGeometry x="4068.75" y="866" width="247.5" height="208" as="geometry" />
        </mxCell>
        <mxCell id="xCWjNT7b1dWMPTHe06sp-70" style="edgeStyle=orthogonalEdgeStyle;rounded=0;orthogonalLoop=1;jettySize=auto;html=1;exitX=0.5;exitY=1;exitDx=0;exitDy=0;entryX=0.5;entryY=0;entryDx=0;entryDy=0;" edge="1" parent="WIyWlLk6GJQsqaUBKTNV-1" source="xCWjNT7b1dWMPTHe06sp-67" target="xCWjNT7b1dWMPTHe06sp-69">
          <mxGeometry relative="1" as="geometry" />
        </mxCell>
        <mxCell id="xCWjNT7b1dWMPTHe06sp-83" style="edgeStyle=orthogonalEdgeStyle;rounded=0;orthogonalLoop=1;jettySize=auto;html=1;exitX=1;exitY=0.5;exitDx=0;exitDy=0;entryX=1;entryY=0.5;entryDx=0;entryDy=0;" edge="1" parent="WIyWlLk6GJQsqaUBKTNV-1" source="xCWjNT7b1dWMPTHe06sp-67" target="xCWjNT7b1dWMPTHe06sp-77">
          <mxGeometry relative="1" as="geometry">
            <Array as="points">
              <mxPoint x="4624" y="1242" />
              <mxPoint x="4624" y="2176" />
              <mxPoint x="4304" y="2176" />
            </Array>
          </mxGeometry>
        </mxCell>
        <mxCell id="xCWjNT7b1dWMPTHe06sp-67" value="&lt;font style=&quot;font-size: 20px;&quot;&gt;If contacts[i].name == name&lt;/font&gt;" style="rhombus;whiteSpace=wrap;html=1;" vertex="1" parent="WIyWlLk6GJQsqaUBKTNV-1">
          <mxGeometry x="4076.75" y="1138" width="231.5" height="208" as="geometry" />
        </mxCell>
        <mxCell id="xCWjNT7b1dWMPTHe06sp-72" style="edgeStyle=orthogonalEdgeStyle;rounded=0;orthogonalLoop=1;jettySize=auto;html=1;exitX=0.5;exitY=1;exitDx=0;exitDy=0;entryX=0.5;entryY=0;entryDx=0;entryDy=0;" edge="1" parent="WIyWlLk6GJQsqaUBKTNV-1" source="xCWjNT7b1dWMPTHe06sp-69" target="xCWjNT7b1dWMPTHe06sp-71">
          <mxGeometry relative="1" as="geometry" />
        </mxCell>
        <mxCell id="xCWjNT7b1dWMPTHe06sp-69" value="&lt;font style=&quot;font-size: 20px;&quot;&gt;For j = i to contactCount - 2, contacts[j] = contacts[j + 1]&lt;/font&gt;" style="rounded=0;whiteSpace=wrap;html=1;" vertex="1" parent="WIyWlLk6GJQsqaUBKTNV-1">
          <mxGeometry x="3997.88" y="1426" width="389.25" height="124" as="geometry" />
        </mxCell>
        <mxCell id="xCWjNT7b1dWMPTHe06sp-74" style="edgeStyle=orthogonalEdgeStyle;rounded=0;orthogonalLoop=1;jettySize=auto;html=1;exitX=0.5;exitY=1;exitDx=0;exitDy=0;entryX=0.5;entryY=0;entryDx=0;entryDy=0;" edge="1" parent="WIyWlLk6GJQsqaUBKTNV-1" source="xCWjNT7b1dWMPTHe06sp-71" target="xCWjNT7b1dWMPTHe06sp-73">
          <mxGeometry relative="1" as="geometry" />
        </mxCell>
        <mxCell id="xCWjNT7b1dWMPTHe06sp-71" value="&lt;font style=&quot;font-size: 20px;&quot;&gt;contactCount = contactCount - 1&lt;/font&gt;" style="rounded=0;whiteSpace=wrap;html=1;" vertex="1" parent="WIyWlLk6GJQsqaUBKTNV-1">
          <mxGeometry x="4042.76" y="1634" width="299.49" height="126" as="geometry" />
        </mxCell>
        <mxCell id="xCWjNT7b1dWMPTHe06sp-107" style="edgeStyle=orthogonalEdgeStyle;rounded=0;orthogonalLoop=1;jettySize=auto;html=1;exitX=1;exitY=0.5;exitDx=0;exitDy=0;entryX=1;entryY=0.5;entryDx=0;entryDy=0;" edge="1" parent="WIyWlLk6GJQsqaUBKTNV-1" source="xCWjNT7b1dWMPTHe06sp-73" target="xCWjNT7b1dWMPTHe06sp-81">
          <mxGeometry relative="1" as="geometry">
            <Array as="points">
              <mxPoint x="4416" y="1890" />
              <mxPoint x="4416" y="2674" />
            </Array>
          </mxGeometry>
        </mxCell>
        <mxCell id="xCWjNT7b1dWMPTHe06sp-73" value="&lt;font style=&quot;font-size: 20px;&quot;&gt;Print &quot; Contact Deleted &quot;&lt;/font&gt;" style="rounded=0;whiteSpace=wrap;html=1;" vertex="1" parent="WIyWlLk6GJQsqaUBKTNV-1">
          <mxGeometry x="4056.5" y="1826" width="272" height="128" as="geometry" />
        </mxCell>
        <mxCell id="xCWjNT7b1dWMPTHe06sp-105" style="edgeStyle=orthogonalEdgeStyle;rounded=0;orthogonalLoop=1;jettySize=auto;html=1;exitX=1;exitY=0.5;exitDx=0;exitDy=0;entryX=1;entryY=0.5;entryDx=0;entryDy=0;" edge="1" parent="WIyWlLk6GJQsqaUBKTNV-1" source="xCWjNT7b1dWMPTHe06sp-77" target="xCWjNT7b1dWMPTHe06sp-77">
          <mxGeometry relative="1" as="geometry">
            <mxPoint x="4400" y="2112" as="targetPoint" />
          </mxGeometry>
        </mxCell>
        <mxCell id="xCWjNT7b1dWMPTHe06sp-77" value="&lt;font style=&quot;font-size: 21px;&quot;&gt;i = i + 1&lt;/font&gt;" style="rounded=0;whiteSpace=wrap;html=1;" vertex="1" parent="WIyWlLk6GJQsqaUBKTNV-1">
          <mxGeometry x="4056.5" y="2128" width="224" height="112" as="geometry" />
        </mxCell>
        <mxCell id="xCWjNT7b1dWMPTHe06sp-82" style="edgeStyle=orthogonalEdgeStyle;rounded=0;orthogonalLoop=1;jettySize=auto;html=1;exitX=0.5;exitY=1;exitDx=0;exitDy=0;entryX=0.5;entryY=0;entryDx=0;entryDy=0;" edge="1" parent="WIyWlLk6GJQsqaUBKTNV-1" source="xCWjNT7b1dWMPTHe06sp-79" target="xCWjNT7b1dWMPTHe06sp-81">
          <mxGeometry relative="1" as="geometry" />
        </mxCell>
        <mxCell id="xCWjNT7b1dWMPTHe06sp-79" value="&lt;font style=&quot;font-size: 21px;&quot;&gt;Print &quot; Contact not Found &quot;&lt;/font&gt;" style="shape=parallelogram;perimeter=parallelogramPerimeter;whiteSpace=wrap;html=1;fixedSize=1;" vertex="1" parent="WIyWlLk6GJQsqaUBKTNV-1">
          <mxGeometry x="4056.5" y="2418" width="272" height="112" as="geometry" />
        </mxCell>
        <mxCell id="xCWjNT7b1dWMPTHe06sp-81" value="&lt;font style=&quot;font-size: 20px;&quot;&gt;END&lt;/font&gt;" style="ellipse;whiteSpace=wrap;html=1;" vertex="1" parent="WIyWlLk6GJQsqaUBKTNV-1">
          <mxGeometry x="4096.51" y="2610" width="192" height="128" as="geometry" />
        </mxCell>
        <mxCell id="xCWjNT7b1dWMPTHe06sp-85" value="&lt;font style=&quot;font-size: 20px;&quot;&gt;FLOWCHART TO DELETE CONTACTS&lt;/font&gt;" style="shape=document;whiteSpace=wrap;html=1;boundedLbl=1;" vertex="1" parent="WIyWlLk6GJQsqaUBKTNV-1">
          <mxGeometry x="4387.13" y="62" width="256" height="156" as="geometry" />
        </mxCell>
        <mxCell id="xCWjNT7b1dWMPTHe06sp-90" style="edgeStyle=orthogonalEdgeStyle;rounded=0;orthogonalLoop=1;jettySize=auto;html=1;exitX=0.5;exitY=1;exitDx=0;exitDy=0;entryX=0.5;entryY=0;entryDx=0;entryDy=0;" edge="1" parent="WIyWlLk6GJQsqaUBKTNV-1" source="xCWjNT7b1dWMPTHe06sp-86" target="xCWjNT7b1dWMPTHe06sp-87">
          <mxGeometry relative="1" as="geometry" />
        </mxCell>
        <mxCell id="xCWjNT7b1dWMPTHe06sp-86" value="&lt;font style=&quot;font-size: 20px;&quot;&gt;START&lt;/font&gt;" style="ellipse;whiteSpace=wrap;html=1;" vertex="1" parent="WIyWlLk6GJQsqaUBKTNV-1">
          <mxGeometry x="3280" y="16" width="192" height="136" as="geometry" />
        </mxCell>
        <mxCell id="xCWjNT7b1dWMPTHe06sp-91" style="edgeStyle=orthogonalEdgeStyle;rounded=0;orthogonalLoop=1;jettySize=auto;html=1;exitX=0.5;exitY=1;exitDx=0;exitDy=0;entryX=0.5;entryY=0;entryDx=0;entryDy=0;" edge="1" parent="WIyWlLk6GJQsqaUBKTNV-1" source="xCWjNT7b1dWMPTHe06sp-87" target="xCWjNT7b1dWMPTHe06sp-88">
          <mxGeometry relative="1" as="geometry" />
        </mxCell>
        <mxCell id="xCWjNT7b1dWMPTHe06sp-87" value="&lt;font style=&quot;font-size: 20px;&quot;&gt;Input name&lt;/font&gt;" style="shape=parallelogram;perimeter=parallelogramPerimeter;whiteSpace=wrap;html=1;fixedSize=1;" vertex="1" parent="WIyWlLk6GJQsqaUBKTNV-1">
          <mxGeometry x="3240" y="232" width="272" height="124" as="geometry" />
        </mxCell>
        <mxCell id="xCWjNT7b1dWMPTHe06sp-92" style="edgeStyle=orthogonalEdgeStyle;rounded=0;orthogonalLoop=1;jettySize=auto;html=1;exitX=0.5;exitY=1;exitDx=0;exitDy=0;entryX=0.5;entryY=0;entryDx=0;entryDy=0;" edge="1" parent="WIyWlLk6GJQsqaUBKTNV-1" source="xCWjNT7b1dWMPTHe06sp-88" target="xCWjNT7b1dWMPTHe06sp-89">
          <mxGeometry relative="1" as="geometry" />
        </mxCell>
        <mxCell id="xCWjNT7b1dWMPTHe06sp-88" value="&lt;font style=&quot;font-size: 20px;&quot;&gt;Get name&lt;/font&gt;" style="rounded=0;whiteSpace=wrap;html=1;" vertex="1" parent="WIyWlLk6GJQsqaUBKTNV-1">
          <mxGeometry x="3258" y="438" width="236" height="114" as="geometry" />
        </mxCell>
        <mxCell id="xCWjNT7b1dWMPTHe06sp-95" style="edgeStyle=orthogonalEdgeStyle;rounded=0;orthogonalLoop=1;jettySize=auto;html=1;exitX=0.5;exitY=1;exitDx=0;exitDy=0;entryX=0.5;entryY=0;entryDx=0;entryDy=0;" edge="1" parent="WIyWlLk6GJQsqaUBKTNV-1" source="xCWjNT7b1dWMPTHe06sp-89" target="xCWjNT7b1dWMPTHe06sp-93">
          <mxGeometry relative="1" as="geometry" />
        </mxCell>
        <mxCell id="xCWjNT7b1dWMPTHe06sp-89" value="&lt;font style=&quot;font-size: 20px;&quot;&gt;Set i&amp;nbsp; = 0&lt;/font&gt;" style="rounded=0;whiteSpace=wrap;html=1;" vertex="1" parent="WIyWlLk6GJQsqaUBKTNV-1">
          <mxGeometry x="3266" y="611" width="220" height="106" as="geometry" />
        </mxCell>
        <mxCell id="xCWjNT7b1dWMPTHe06sp-96" style="edgeStyle=orthogonalEdgeStyle;rounded=0;orthogonalLoop=1;jettySize=auto;html=1;exitX=0.5;exitY=1;exitDx=0;exitDy=0;entryX=0.5;entryY=0;entryDx=0;entryDy=0;" edge="1" parent="WIyWlLk6GJQsqaUBKTNV-1" source="xCWjNT7b1dWMPTHe06sp-93" target="xCWjNT7b1dWMPTHe06sp-94">
          <mxGeometry relative="1" as="geometry" />
        </mxCell>
        <mxCell id="xCWjNT7b1dWMPTHe06sp-112" style="edgeStyle=orthogonalEdgeStyle;rounded=0;orthogonalLoop=1;jettySize=auto;html=1;exitX=0;exitY=0.5;exitDx=0;exitDy=0;entryX=0;entryY=0.5;entryDx=0;entryDy=0;" edge="1" parent="WIyWlLk6GJQsqaUBKTNV-1" source="xCWjNT7b1dWMPTHe06sp-93" target="xCWjNT7b1dWMPTHe06sp-108">
          <mxGeometry relative="1" as="geometry">
            <Array as="points">
              <mxPoint x="3136" y="880" />
              <mxPoint x="3136" y="1925" />
            </Array>
          </mxGeometry>
        </mxCell>
        <mxCell id="xCWjNT7b1dWMPTHe06sp-93" value="&lt;font style=&quot;font-size: 21px;&quot;&gt;If i &amp;lt; contactCount&lt;/font&gt;" style="rhombus;whiteSpace=wrap;html=1;" vertex="1" parent="WIyWlLk6GJQsqaUBKTNV-1">
          <mxGeometry x="3252" y="776" width="248" height="208" as="geometry" />
        </mxCell>
        <mxCell id="xCWjNT7b1dWMPTHe06sp-98" style="edgeStyle=orthogonalEdgeStyle;rounded=0;orthogonalLoop=1;jettySize=auto;html=1;exitX=0.5;exitY=1;exitDx=0;exitDy=0;entryX=0.5;entryY=0;entryDx=0;entryDy=0;" edge="1" parent="WIyWlLk6GJQsqaUBKTNV-1" source="xCWjNT7b1dWMPTHe06sp-94" target="xCWjNT7b1dWMPTHe06sp-97">
          <mxGeometry relative="1" as="geometry" />
        </mxCell>
        <mxCell id="xCWjNT7b1dWMPTHe06sp-113" style="edgeStyle=orthogonalEdgeStyle;rounded=0;orthogonalLoop=1;jettySize=auto;html=1;exitX=1;exitY=0.5;exitDx=0;exitDy=0;entryX=1;entryY=0.5;entryDx=0;entryDy=0;" edge="1" parent="WIyWlLk6GJQsqaUBKTNV-1" source="xCWjNT7b1dWMPTHe06sp-94" target="xCWjNT7b1dWMPTHe06sp-101">
          <mxGeometry relative="1" as="geometry">
            <Array as="points">
              <mxPoint x="3616" y="1136" />
              <mxPoint x="3616" y="1750" />
            </Array>
          </mxGeometry>
        </mxCell>
        <mxCell id="xCWjNT7b1dWMPTHe06sp-94" value="&lt;font style=&quot;font-size: 20px;&quot;&gt;If contacts[i].name&amp;nbsp;&lt;/font&gt;&lt;div&gt;&lt;font style=&quot;font-size: 20px;&quot;&gt;== name&lt;/font&gt;&lt;/div&gt;" style="rhombus;whiteSpace=wrap;html=1;" vertex="1" parent="WIyWlLk6GJQsqaUBKTNV-1">
          <mxGeometry x="3244" y="1032" width="264" height="208" as="geometry" />
        </mxCell>
        <mxCell id="xCWjNT7b1dWMPTHe06sp-100" style="edgeStyle=orthogonalEdgeStyle;rounded=0;orthogonalLoop=1;jettySize=auto;html=1;exitX=0.5;exitY=1;exitDx=0;exitDy=0;entryX=0.5;entryY=0;entryDx=0;entryDy=0;" edge="1" parent="WIyWlLk6GJQsqaUBKTNV-1" source="xCWjNT7b1dWMPTHe06sp-97" target="xCWjNT7b1dWMPTHe06sp-99">
          <mxGeometry relative="1" as="geometry" />
        </mxCell>
        <mxCell id="xCWjNT7b1dWMPTHe06sp-97" value="&lt;font style=&quot;font-size: 21px;&quot;&gt;contacts[i].phone = newPhone&lt;/font&gt;" style="rounded=0;whiteSpace=wrap;html=1;" vertex="1" parent="WIyWlLk6GJQsqaUBKTNV-1">
          <mxGeometry x="3248" y="1283" width="256" height="122" as="geometry" />
        </mxCell>
        <mxCell id="xCWjNT7b1dWMPTHe06sp-114" style="edgeStyle=orthogonalEdgeStyle;rounded=0;orthogonalLoop=1;jettySize=auto;html=1;exitX=1;exitY=0.5;exitDx=0;exitDy=0;entryX=1;entryY=0.5;entryDx=0;entryDy=0;" edge="1" parent="WIyWlLk6GJQsqaUBKTNV-1" source="xCWjNT7b1dWMPTHe06sp-99">
          <mxGeometry relative="1" as="geometry">
            <mxPoint x="3485.9999999999854" y="2120" as="targetPoint" />
            <Array as="points">
              <mxPoint x="3664" y="1560" />
              <mxPoint x="3664" y="2120" />
            </Array>
          </mxGeometry>
        </mxCell>
        <mxCell id="xCWjNT7b1dWMPTHe06sp-99" value="&lt;font style=&quot;font-size: 21px;&quot;&gt;Print &quot; Contact Updated &quot;&lt;/font&gt;" style="shape=parallelogram;perimeter=parallelogramPerimeter;whiteSpace=wrap;html=1;fixedSize=1;" vertex="1" parent="WIyWlLk6GJQsqaUBKTNV-1">
          <mxGeometry x="3232" y="1496" width="288" height="128" as="geometry" />
        </mxCell>
        <mxCell id="xCWjNT7b1dWMPTHe06sp-101" value="&lt;font style=&quot;font-size: 24px;&quot;&gt;i = i + 1&lt;/font&gt;" style="rounded=0;whiteSpace=wrap;html=1;" vertex="1" parent="WIyWlLk6GJQsqaUBKTNV-1">
          <mxGeometry x="3258" y="1704" width="236" height="92" as="geometry" />
        </mxCell>
        <mxCell id="xCWjNT7b1dWMPTHe06sp-111" style="edgeStyle=orthogonalEdgeStyle;rounded=0;orthogonalLoop=1;jettySize=auto;html=1;exitX=0.5;exitY=1;exitDx=0;exitDy=0;entryX=0.5;entryY=0;entryDx=0;entryDy=0;" edge="1" parent="WIyWlLk6GJQsqaUBKTNV-1" source="xCWjNT7b1dWMPTHe06sp-108">
          <mxGeometry relative="1" as="geometry">
            <mxPoint x="3376" y="2056" as="targetPoint" />
          </mxGeometry>
        </mxCell>
        <mxCell id="xCWjNT7b1dWMPTHe06sp-108" value="&lt;font style=&quot;font-size: 22px;&quot;&gt;Print &quot; Contact not Found &quot;&lt;/font&gt;" style="shape=parallelogram;perimeter=parallelogramPerimeter;whiteSpace=wrap;html=1;fixedSize=1;" vertex="1" parent="WIyWlLk6GJQsqaUBKTNV-1">
          <mxGeometry x="3218" y="1864" width="316" height="122" as="geometry" />
        </mxCell>
        <mxCell id="xCWjNT7b1dWMPTHe06sp-110" value="&lt;font style=&quot;font-size: 22px;&quot;&gt;END&lt;/font&gt;" style="ellipse;whiteSpace=wrap;html=1;" vertex="1" parent="WIyWlLk6GJQsqaUBKTNV-1">
          <mxGeometry x="3106" y="2064" width="220" height="128" as="geometry" />
        </mxCell>
        <mxCell id="xCWjNT7b1dWMPTHe06sp-115" value="&lt;font style=&quot;font-size: 21px;&quot;&gt;FLOWCHART TO UPDATE CONTACT&lt;/font&gt;" style="shape=document;whiteSpace=wrap;html=1;boundedLbl=1;" vertex="1" parent="WIyWlLk6GJQsqaUBKTNV-1">
          <mxGeometry x="2992" y="44" width="224" height="156" as="geometry" />
        </mxCell>
        <mxCell id="xCWjNT7b1dWMPTHe06sp-116" value="" style="endArrow=none;html=1;rounded=0;" edge="1" parent="WIyWlLk6GJQsqaUBKTNV-1">
          <mxGeometry width="50" height="50" relative="1" as="geometry">
            <mxPoint x="1920" y="768" as="sourcePoint" />
            <mxPoint x="2768" y="768" as="targetPoint" />
          </mxGeometry>
        </mxCell>
        <mxCell id="xCWjNT7b1dWMPTHe06sp-119" style="edgeStyle=orthogonalEdgeStyle;rounded=0;orthogonalLoop=1;jettySize=auto;html=1;exitX=0.5;exitY=1;exitDx=0;exitDy=0;entryX=0.5;entryY=0;entryDx=0;entryDy=0;" edge="1" parent="WIyWlLk6GJQsqaUBKTNV-1" source="xCWjNT7b1dWMPTHe06sp-117" target="xCWjNT7b1dWMPTHe06sp-118">
          <mxGeometry relative="1" as="geometry" />
        </mxCell>
        <mxCell id="xCWjNT7b1dWMPTHe06sp-117" value="&lt;font style=&quot;font-size: 20px;&quot;&gt;START&lt;/font&gt;" style="ellipse;whiteSpace=wrap;html=1;" vertex="1" parent="WIyWlLk6GJQsqaUBKTNV-1">
          <mxGeometry x="2326.5" y="800" width="177" height="128" as="geometry" />
        </mxCell>
        <mxCell id="xCWjNT7b1dWMPTHe06sp-121" style="edgeStyle=orthogonalEdgeStyle;rounded=0;orthogonalLoop=1;jettySize=auto;html=1;exitX=0.5;exitY=1;exitDx=0;exitDy=0;entryX=0.5;entryY=0;entryDx=0;entryDy=0;" edge="1" parent="WIyWlLk6GJQsqaUBKTNV-1" source="xCWjNT7b1dWMPTHe06sp-118" target="xCWjNT7b1dWMPTHe06sp-120">
          <mxGeometry relative="1" as="geometry" />
        </mxCell>
        <mxCell id="xCWjNT7b1dWMPTHe06sp-118" value="&lt;font style=&quot;font-size: 20px;&quot;&gt;Set i = 0&lt;/font&gt;" style="rounded=0;whiteSpace=wrap;html=1;" vertex="1" parent="WIyWlLk6GJQsqaUBKTNV-1">
          <mxGeometry x="2297" y="992" width="235" height="108" as="geometry" />
        </mxCell>
        <mxCell id="xCWjNT7b1dWMPTHe06sp-123" style="edgeStyle=orthogonalEdgeStyle;rounded=0;orthogonalLoop=1;jettySize=auto;html=1;exitX=0.5;exitY=1;exitDx=0;exitDy=0;entryX=0.5;entryY=0;entryDx=0;entryDy=0;" edge="1" parent="WIyWlLk6GJQsqaUBKTNV-1" source="xCWjNT7b1dWMPTHe06sp-120" target="xCWjNT7b1dWMPTHe06sp-122">
          <mxGeometry relative="1" as="geometry" />
        </mxCell>
        <mxCell id="xCWjNT7b1dWMPTHe06sp-138" style="edgeStyle=orthogonalEdgeStyle;rounded=0;orthogonalLoop=1;jettySize=auto;html=1;exitX=0;exitY=0.5;exitDx=0;exitDy=0;entryX=0;entryY=0.5;entryDx=0;entryDy=0;" edge="1" parent="WIyWlLk6GJQsqaUBKTNV-1" source="xCWjNT7b1dWMPTHe06sp-120" target="xCWjNT7b1dWMPTHe06sp-134">
          <mxGeometry relative="1" as="geometry">
            <Array as="points">
              <mxPoint x="2128" y="1242" />
              <mxPoint x="2128" y="2593" />
            </Array>
          </mxGeometry>
        </mxCell>
        <mxCell id="xCWjNT7b1dWMPTHe06sp-120" value="&lt;font style=&quot;font-size: 22px;&quot;&gt;If i &amp;lt; contactCount - 1&lt;/font&gt;" style="rhombus;whiteSpace=wrap;html=1;" vertex="1" parent="WIyWlLk6GJQsqaUBKTNV-1">
          <mxGeometry x="2274.5" y="1154" width="281" height="176" as="geometry" />
        </mxCell>
        <mxCell id="xCWjNT7b1dWMPTHe06sp-125" style="edgeStyle=orthogonalEdgeStyle;rounded=0;orthogonalLoop=1;jettySize=auto;html=1;exitX=0.5;exitY=1;exitDx=0;exitDy=0;entryX=0.5;entryY=0;entryDx=0;entryDy=0;" edge="1" parent="WIyWlLk6GJQsqaUBKTNV-1" source="xCWjNT7b1dWMPTHe06sp-122" target="xCWjNT7b1dWMPTHe06sp-124">
          <mxGeometry relative="1" as="geometry" />
        </mxCell>
        <mxCell id="xCWjNT7b1dWMPTHe06sp-122" value="&lt;font style=&quot;font-size: 22px;&quot;&gt;Set j = 0&lt;/font&gt;" style="rounded=0;whiteSpace=wrap;html=1;" vertex="1" parent="WIyWlLk6GJQsqaUBKTNV-1">
          <mxGeometry x="2297" y="1380" width="237" height="92" as="geometry" />
        </mxCell>
        <mxCell id="xCWjNT7b1dWMPTHe06sp-127" style="edgeStyle=orthogonalEdgeStyle;rounded=0;orthogonalLoop=1;jettySize=auto;html=1;exitX=0.5;exitY=1;exitDx=0;exitDy=0;entryX=0.5;entryY=0;entryDx=0;entryDy=0;" edge="1" parent="WIyWlLk6GJQsqaUBKTNV-1" source="xCWjNT7b1dWMPTHe06sp-124" target="xCWjNT7b1dWMPTHe06sp-126">
          <mxGeometry relative="1" as="geometry" />
        </mxCell>
        <mxCell id="xCWjNT7b1dWMPTHe06sp-139" style="edgeStyle=orthogonalEdgeStyle;rounded=0;orthogonalLoop=1;jettySize=auto;html=1;exitX=1;exitY=0.5;exitDx=0;exitDy=0;entryX=1;entryY=0.5;entryDx=0;entryDy=0;" edge="1" parent="WIyWlLk6GJQsqaUBKTNV-1" source="xCWjNT7b1dWMPTHe06sp-124" target="xCWjNT7b1dWMPTHe06sp-132">
          <mxGeometry relative="1" as="geometry">
            <Array as="points">
              <mxPoint x="2720" y="1607" />
              <mxPoint x="2720" y="2390" />
            </Array>
          </mxGeometry>
        </mxCell>
        <mxCell id="xCWjNT7b1dWMPTHe06sp-124" value="&lt;font style=&quot;font-size: 21px;&quot;&gt;&amp;nbsp;If j &amp;lt; contactCount - 1 - i&lt;/font&gt;" style="rhombus;whiteSpace=wrap;html=1;" vertex="1" parent="WIyWlLk6GJQsqaUBKTNV-1">
          <mxGeometry x="2257.75" y="1520" width="313.5" height="174" as="geometry" />
        </mxCell>
        <mxCell id="xCWjNT7b1dWMPTHe06sp-129" style="edgeStyle=orthogonalEdgeStyle;rounded=0;orthogonalLoop=1;jettySize=auto;html=1;exitX=0.5;exitY=1;exitDx=0;exitDy=0;entryX=0.5;entryY=0;entryDx=0;entryDy=0;" edge="1" parent="WIyWlLk6GJQsqaUBKTNV-1" source="xCWjNT7b1dWMPTHe06sp-126" target="xCWjNT7b1dWMPTHe06sp-128">
          <mxGeometry relative="1" as="geometry" />
        </mxCell>
        <mxCell id="xCWjNT7b1dWMPTHe06sp-140" style="edgeStyle=orthogonalEdgeStyle;rounded=0;orthogonalLoop=1;jettySize=auto;html=1;exitX=1;exitY=0.5;exitDx=0;exitDy=0;entryX=1;entryY=0.5;entryDx=0;entryDy=0;" edge="1" parent="WIyWlLk6GJQsqaUBKTNV-1" source="xCWjNT7b1dWMPTHe06sp-126" target="xCWjNT7b1dWMPTHe06sp-130">
          <mxGeometry relative="1" as="geometry">
            <Array as="points">
              <mxPoint x="2672" y="1832" />
              <mxPoint x="2672" y="2214" />
            </Array>
          </mxGeometry>
        </mxCell>
        <mxCell id="xCWjNT7b1dWMPTHe06sp-126" value="&lt;font style=&quot;font-size: 21px;&quot;&gt;&amp;nbsp;If contacts[j].name &amp;gt;&amp;nbsp;&lt;/font&gt;&lt;div&gt;&lt;font style=&quot;font-size: 21px;&quot;&gt;contacts[j + 1].name&lt;/font&gt;&lt;/div&gt;" style="rhombus;whiteSpace=wrap;html=1;" vertex="1" parent="WIyWlLk6GJQsqaUBKTNV-1">
          <mxGeometry x="2242.25" y="1744" width="345.5" height="176" as="geometry" />
        </mxCell>
        <mxCell id="xCWjNT7b1dWMPTHe06sp-131" style="edgeStyle=orthogonalEdgeStyle;rounded=0;orthogonalLoop=1;jettySize=auto;html=1;exitX=0.5;exitY=1;exitDx=0;exitDy=0;entryX=0.5;entryY=0;entryDx=0;entryDy=0;" edge="1" parent="WIyWlLk6GJQsqaUBKTNV-1" source="xCWjNT7b1dWMPTHe06sp-128" target="xCWjNT7b1dWMPTHe06sp-130">
          <mxGeometry relative="1" as="geometry" />
        </mxCell>
        <mxCell id="xCWjNT7b1dWMPTHe06sp-128" value="&lt;font style=&quot;font-size: 23px;&quot;&gt;contacts[j] = contacts[j + 1]&lt;/font&gt;" style="rounded=0;whiteSpace=wrap;html=1;" vertex="1" parent="WIyWlLk6GJQsqaUBKTNV-1">
          <mxGeometry x="2265.5" y="1984" width="299" height="128" as="geometry" />
        </mxCell>
        <mxCell id="xCWjNT7b1dWMPTHe06sp-133" style="edgeStyle=orthogonalEdgeStyle;rounded=0;orthogonalLoop=1;jettySize=auto;html=1;exitX=0.5;exitY=1;exitDx=0;exitDy=0;entryX=0.5;entryY=0;entryDx=0;entryDy=0;" edge="1" parent="WIyWlLk6GJQsqaUBKTNV-1" source="xCWjNT7b1dWMPTHe06sp-130" target="xCWjNT7b1dWMPTHe06sp-132">
          <mxGeometry relative="1" as="geometry" />
        </mxCell>
        <mxCell id="xCWjNT7b1dWMPTHe06sp-130" value="&lt;font style=&quot;font-size: 22px;&quot;&gt;j = j + 1&lt;/font&gt;" style="rounded=0;whiteSpace=wrap;html=1;" vertex="1" parent="WIyWlLk6GJQsqaUBKTNV-1">
          <mxGeometry x="2297" y="2160" width="237.5" height="108" as="geometry" />
        </mxCell>
        <mxCell id="xCWjNT7b1dWMPTHe06sp-132" value="&lt;font style=&quot;font-size: 22px;&quot;&gt;i = i + 1&lt;/font&gt;" style="rounded=0;whiteSpace=wrap;html=1;" vertex="1" parent="WIyWlLk6GJQsqaUBKTNV-1">
          <mxGeometry x="2297" y="2336" width="237.5" height="108" as="geometry" />
        </mxCell>
        <mxCell id="xCWjNT7b1dWMPTHe06sp-136" style="edgeStyle=orthogonalEdgeStyle;rounded=0;orthogonalLoop=1;jettySize=auto;html=1;exitX=0.5;exitY=1;exitDx=0;exitDy=0;entryX=0.5;entryY=0;entryDx=0;entryDy=0;" edge="1" parent="WIyWlLk6GJQsqaUBKTNV-1" source="xCWjNT7b1dWMPTHe06sp-134" target="xCWjNT7b1dWMPTHe06sp-135">
          <mxGeometry relative="1" as="geometry" />
        </mxCell>
        <mxCell id="xCWjNT7b1dWMPTHe06sp-134" value="&lt;font style=&quot;font-size: 22px;&quot;&gt;Print &quot; Contacts Sorted &quot;&lt;/font&gt;" style="shape=parallelogram;perimeter=parallelogramPerimeter;whiteSpace=wrap;html=1;fixedSize=1;" vertex="1" parent="WIyWlLk6GJQsqaUBKTNV-1">
          <mxGeometry x="2274.25" y="2530" width="283" height="126" as="geometry" />
        </mxCell>
        <mxCell id="xCWjNT7b1dWMPTHe06sp-135" value="&lt;font style=&quot;font-size: 22px;&quot;&gt;END&lt;/font&gt;" style="ellipse;whiteSpace=wrap;html=1;" vertex="1" parent="WIyWlLk6GJQsqaUBKTNV-1">
          <mxGeometry x="2312.25" y="2738" width="205.5" height="128" as="geometry" />
        </mxCell>
        <mxCell id="xCWjNT7b1dWMPTHe06sp-141" value="&lt;font style=&quot;font-size: 21px;&quot;&gt;FLOWCHART FOR SORTING CONTACTS&lt;/font&gt;" style="shape=document;whiteSpace=wrap;html=1;boundedLbl=1;" vertex="1" parent="WIyWlLk6GJQsqaUBKTNV-1">
          <mxGeometry x="2619.25" y="832" width="212.75" height="144" as="geometry" />
        </mxCell>
      </root>
    </mxGraphModel>
  </diagram>
  <diagram id="YnjBPFzKaewYDhtibOjl" name="Page-2">
    <mxGraphModel dx="2907" dy="1590" grid="1" gridSize="10" guides="1" tooltips="1" connect="1" arrows="1" fold="1" page="1" pageScale="1" pageWidth="850" pageHeight="1100" math="0" shadow="0">
      <root>
        <mxCell id="0" />
        <mxCell id="1" parent="0" />
      </root>
    </mxGraphModel>
  </diagram>
</mxfile>
